<?xml version="1.0" standalone="no"?>
<!DOCTYPE svg PUBLIC "-//W3C//DTD SVG 20010904//EN"
 "http://www.w3.org/TR/2001/REC-SVG-20010904/DTD/svg10.dtd">
<svg version="1.0" xmlns="http://www.w3.org/2000/svg"
 width="2193.000000pt" height="2193.000000pt" viewBox="0 0 2193.000000 2193.000000"
 preserveAspectRatio="xMidYMid meet">
<metadata>
Created by potrace 1.11, written by Peter Selinger 2001-2013
</metadata>
<g transform="translate(0.000000,2193.000000) scale(0.100000,-0.100000)"
fill="#000000" stroke="none">
<path d="M14957 21913 c-2 -1 -32 -4 -67 -7 -36 -3 -74 -8 -85 -10 -11 -2 -42
-7 -68 -10 -58 -9 -61 -9 -191 -36 -212 -44 -499 -130 -701 -210 -44 -18 -102
-41 -130 -52 -356 -140 -863 -434 -1215 -702 -254 -193 -557 -472 -725 -668
-38 -44 -75 -86 -80 -92 -6 -6 -26 -31 -45 -56 -19 -25 -37 -47 -40 -50 -20
-20 -196 -263 -256 -355 -21 -33 -41 -62 -44 -65 -9 -9 -159 -262 -204 -343
-41 -75 -149 -291 -184 -368 -70 -152 -219 -558 -236 -639 -2 -8 -6 -22 -9
-30 -13 -31 -77 -316 -91 -405 -3 -16 -7 -43 -10 -60 -3 -16 -8 -50 -11 -75
-4 -25 -8 -56 -10 -70 -21 -138 -27 -562 -12 -715 5 -44 10 -91 11 -105 9 -94
31 -214 41 -223 17 -17 409 -10 500 8 11 3 41 7 67 10 444 46 1036 253 1515
528 106 60 393 251 493 327 288 218 639 556 820 790 19 25 37 47 40 50 3 3 42
55 86 115 202 274 395 592 538 889 51 107 159 355 171 396 4 14 11 30 15 35
17 23 133 393 169 540 39 160 74 330 85 415 3 25 8 55 11 68 2 13 7 53 11 90
3 37 8 81 10 97 21 195 21 633 -1 766 -2 13 -6 44 -9 69 -3 25 -8 71 -12 103
l-6 58 -70 -3 c-38 -1 -70 -3 -71 -5z"/>
<path d="M6997 16813 c-1 0 -48 -4 -103 -7 -56 -4 -116 -8 -135 -10 -19 -3
-63 -7 -99 -11 -36 -4 -74 -9 -85 -11 -11 -2 -38 -6 -61 -9 -36 -5 -150 -25
-229 -40 -27 -6 -94 -21 -137 -31 -10 -2 -26 -6 -35 -8 -247 -59 -477 -134
-735 -239 -73 -31 -169 -72 -213 -93 -44 -21 -82 -38 -85 -39 -3 0 -21 -9 -40
-19 -19 -10 -78 -41 -130 -68 -146 -77 -175 -93 -180 -99 -3 -4 -25 -17 -50
-29 -24 -12 -56 -30 -70 -40 -14 -9 -70 -46 -125 -80 -96 -61 -318 -213 -341
-235 -7 -5 -24 -19 -40 -30 -33 -24 -217 -167 -224 -175 -3 -3 -23 -20 -45
-39 -497 -419 -952 -945 -1338 -1545 -276 -429 -572 -1171 -716 -1791 -12 -49
-26 -108 -31 -130 -14 -55 -67 -330 -75 -385 -3 -25 -8 -52 -10 -60 -2 -8 -7
-40 -11 -70 -4 -30 -8 -64 -9 -75 -17 -118 -24 -180 -30 -270 -4 -44 -8 -91
-10 -105 -2 -14 -7 -61 -10 -105 -4 -44 -8 -100 -10 -125 -20 -241 -27 -984
-12 -1235 4 -66 10 -154 12 -195 3 -41 8 -109 11 -150 4 -41 8 -88 9 -105 1
-16 5 -61 9 -100 6 -63 10 -97 21 -190 2 -16 7 -57 11 -90 3 -33 8 -69 11 -80
2 -11 6 -45 9 -75 3 -30 7 -61 10 -69 2 -8 7 -40 10 -70 3 -31 9 -78 15 -106
5 -27 16 -90 24 -140 27 -161 96 -512 120 -615 4 -19 31 -136 49 -215 20 -87
103 -404 146 -555 133 -472 401 -1231 564 -1595 8 -16 28 -64 46 -105 148
-344 387 -833 565 -1155 49 -88 99 -180 113 -205 13 -24 32 -56 41 -70 10 -14
20 -29 22 -35 4 -10 62 -110 104 -180 11 -18 37 -62 58 -97 86 -143 316 -500
409 -636 38 -53 72 -104 78 -112 59 -89 202 -291 311 -439 442 -603 895 -1098
1320 -1443 139 -112 172 -137 349 -257 224 -153 525 -303 770 -384 81 -27 210
-63 250 -71 14 -2 57 -11 95 -19 154 -33 262 -42 485 -42 175 1 375 11 389 20
3 2 31 6 61 9 158 18 418 88 645 173 109 42 326 134 605 258 257 114 625 254
736 280 11 2 71 18 134 35 63 17 131 33 150 36 19 3 38 8 41 10 3 2 21 6 40 9
19 3 57 10 84 15 76 14 338 48 445 57 194 16 798 9 950 -11 14 -2 54 -6 90
-10 36 -4 72 -9 80 -11 8 -2 35 -7 60 -10 231 -32 517 -109 830 -223 79 -29
369 -155 535 -232 663 -309 1019 -403 1520 -404 136 0 331 11 345 19 3 2 30 6
60 10 30 4 58 9 61 11 3 2 21 6 40 9 100 18 304 79 439 133 209 83 514 253
696 387 23 16 51 37 63 45 187 124 611 511 856 780 101 110 199 224 295 340
34 41 71 86 83 100 56 66 281 361 396 519 164 227 450 639 462 667 2 5 61 95
130 199 69 105 150 230 180 278 29 48 83 134 117 190 75 120 257 428 300 507
16 30 40 75 54 100 73 132 289 553 294 570 0 3 23 52 51 110 92 192 163 342
163 346 0 3 39 87 119 257 22 48 41 90 41 93 0 2 14 35 31 72 18 37 40 86 50
110 l19 43 -23 8 c-91 34 -137 52 -172 67 -22 10 -42 18 -45 19 -41 8 -416
198 -560 283 -177 106 -507 333 -545 376 -5 6 -23 22 -39 34 -130 100 -328
289 -485 461 -42 47 -83 92 -91 101 -112 122 -309 392 -436 600 -134 218 -199
343 -339 655 -76 168 -226 628 -259 795 -2 14 -14 68 -25 120 -19 88 -41 222
-56 330 -3 25 -8 56 -10 70 -2 14 -6 52 -9 85 -3 33 -9 92 -13 130 -16 151 -7
758 12 876 2 13 6 45 9 72 11 87 18 142 22 162 2 11 11 58 19 105 8 47 22 117
31 155 8 39 17 79 19 90 13 61 53 201 105 360 142 438 344 834 641 1256 13 19
27 36 30 39 3 3 25 32 49 64 185 254 573 654 799 826 18 14 38 30 44 35 101
89 640 435 678 435 25 0 16 28 -27 83 -27 34 -51 64 -54 67 -3 3 -27 32 -55
65 -50 60 -75 89 -175 199 -86 96 -356 363 -450 446 -47 41 -87 78 -90 81 -3
3 -57 48 -120 100 -596 488 -1233 837 -1930 1057 -196 62 -562 144 -745 166
-22 3 -58 8 -80 11 -243 33 -720 38 -1005 10 -234 -23 -238 -23 -284 -30 -23
-4 -54 -9 -71 -11 -403 -60 -889 -192 -1370 -371 -288 -108 -451 -169 -526
-199 -79 -30 -404 -141 -439 -149 -8 -2 -49 -14 -90 -25 -41 -12 -82 -23 -90
-25 -371 -85 -522 -103 -835 -100 -172 3 -334 14 -417 30 -13 3 -43 8 -68 11
-25 3 -65 10 -90 15 -25 5 -58 12 -75 15 -180 32 -789 212 -930 274 -11 5 -40
16 -65 24 -25 8 -110 38 -190 66 -159 57 -605 211 -605 209 0 -1 -31 9 -70 21
-127 40 -345 99 -483 131 -174 39 -172 39 -202 43 -14 2 -63 11 -110 20 -47 9
-107 18 -134 22 -28 3 -52 7 -55 9 -3 1 -44 6 -91 10 -46 4 -96 9 -110 10 -89
11 -575 26 -583 18z"/>
</g>
</svg>
